<svg viewBox="0 0 400 300" xmlns="http://www.w3.org/2000/svg">
  <!-- Sky background -->
  <rect width="400" height="300" fill="#87CEEB"/>
  
  <!-- Ground -->
  <rect width="400" height="100" y="200" fill="#90EE90"/>
  
  <!-- Flowers -->
  <g transform="translate(30,220)">
    <line x1="0" y1="0" x2="0" y2="20" stroke="green" stroke-width="2"/>
    <circle cx="0" cy="0" r="5" fill="pink"/>
  </g>
  <g transform="translate(350,230)">
    <line x1="0" y1="0" x2="0" y2="20" stroke="green" stroke-width="2"/>
    <circle cx="0" cy="0" r="5" fill="yellow"/>
  </g>
  <g transform="translate(200,210)">
    <line x1="0" y1="0" x2="0" y2="20" stroke="green" stroke-width="2"/>
    <circle cx="0" cy="0" r="5" fill="purple"/>
  </g>
  
  <!-- Creatures -->
  <!-- Bunny -->
  <g transform="translate(80,180)">
    <circle cx="0" cy="0" r="20" fill="white"/>
    <circle cx="-8" cy="-5" r="3" fill="black"/>
    <circle cx="8" cy="-5" r="3" fill="black"/>
    <ellipse cx="0" cy="2" rx="3" ry="2" fill="pink"/>
    <path d="M-15,-25 Q-5,-35 5,-25" fill="none" stroke="brown" stroke-width="2"/>
    <!-- Party hat -->
    <path d="M-10,-20 L0,-40 L10,-20 Z" fill="red"/>
    <circle cx="0" cy="-38" r="2" fill="yellow"/>
  </g>
  
  <!-- Bear -->
  <g transform="translate(160,180)">
    <circle cx="0" cy="0" r="20" fill="#8B4513"/>
    <circle cx="-8" cy="-5" r="3" fill="black"/>
    <circle cx="8" cy="-5" r="3" fill="black"/>
    <circle cx="0" cy="2" r="5" fill="#5C3317"/>
    <!-- Wizard hat -->
    <path d="M-15,-20 L0,-45 L15,-20" fill="blue"/>
    <rect x="-15" y="-20" width="30" height="5" fill="blue"/>
    <circle cx="0" cy="-30" r="2" fill="white"/>
  </g>
  
  <!-- Cat -->
  <g transform="translate(240,180)">
    <circle cx="0" cy="0" r="20" fill="orange"/>
    <path d="M-15,-15 L-5,-25 L-10,-15" fill="orange"/>
    <path d="M15,-15 L5,-25 L10,-15" fill="orange"/>
    <circle cx="-8" cy="-5" r="3" fill="black"/>
    <circle cx="8" cy="-5" r="3" fill="black"/>
    <path d="M-3,2 Q0,5 3,2" fill="none" stroke="black" stroke-width="2"/>
    <!-- Crown -->
    <path d="M-10,-20 L-5,-30 L0,-20 L5,-30 L10,-20" fill="gold"/>
  </g>
  
  <!-- Bird -->
  <g transform="translate(320,180)">
    <circle cx="0" cy="0" r="20" fill="#4B0082"/>
    <path d="M-5,0 L5,0 L0,5 Z" fill="yellow"/>
    <circle cx="-8" cy="-5" r="3" fill="black"/>
    <circle cx="8" cy="-5" r="3" fill="black"/>
    <!-- Top hat -->
    <rect x="-10" y="-35" width="20" height="15" fill="black"/>
    <rect x="-15" y="-20" width="30" height="3" fill="black"/>
  </g>
</svg>