<?xml version="1.0" encoding="UTF-8" standalone="no"?>
<!-- Created with Inkscape (http://www.inkscape.org/) -->

<svg
   width="210mm"
   height="297mm"
   viewBox="0 0 210 297"
   version="1.1"
   id="svg5"
   sodipodi:docname="pigibank_front.svg"
   inkscape:version="1.1.1 (3bf5ae0d25, 2021-09-20)"
   xmlns:inkscape="http://www.inkscape.org/namespaces/inkscape"
   xmlns:sodipodi="http://sodipodi.sourceforge.net/DTD/sodipodi-0.dtd"
   xmlns="http://www.w3.org/2000/svg"
   xmlns:svg="http://www.w3.org/2000/svg">
  <sodipodi:namedview
     id="namedview7"
     pagecolor="#ffffff"
     bordercolor="#666666"
     borderopacity="1.0"
     inkscape:pageshadow="2"
     inkscape:pageopacity="0.0"
     inkscape:pagecheckerboard="0"
     inkscape:document-units="mm"
     showgrid="false"
     inkscape:zoom="0.74118967"
     inkscape:cx="340.66854"
     inkscape:cy="471.53922"
     inkscape:window-width="1920"
     inkscape:window-height="1017"
     inkscape:window-x="1912"
     inkscape:window-y="-8"
     inkscape:window-maximized="1"
     inkscape:current-layer="layer1" />
  <defs
     id="defs2" />
  <g
     inkscape:label="Layer 1"
     inkscape:groupmode="layer"
     id="layer1">
    <g
       id="g28649">
      <path
         style="fill:#ffffff;stroke:none;stroke-width:0.264583px;stroke-linecap:butt;stroke-linejoin:miter;stroke-opacity:1;fill-opacity:1"
         d="m 119.83484,138.76609 h 5.10506 c 0,0 10.08444,2.77297 10.08444,10.98331 0,8.21033 0,27.84375 0,27.84375 0,0 1.07091,7.85336 -2.58804,10.26292 -3.65896,2.40955 -17.40235,11.24459 -25.52344,10.4414 -8.121093,-0.80318 -10.262922,-0.6247 -10.530648,-7.85336 -0.26773,-7.22867 -0.803188,-42.7473 -0.803188,-42.7473 0,0 0.290266,0.97094 1.740236,0.71395 1.449967,-0.257 21.5919,-8.28123 21.5919,-8.28123 0,0 0.95007,-0.34359 0.92368,-1.36344 z"
         id="path28314" />
      <path
         style="fill:#ffffff;stroke:#000000;stroke-width:0.92604167;stroke-linecap:butt;stroke-linejoin:miter;stroke-opacity:1;fill-opacity:1;stroke-miterlimit:4;stroke-dasharray:none"
         d="m 111.94682,171.64337 c -3.66005,-13.75671 -12.999465,-15.64984 -13.251883,-17.16434 -0.252415,-1.5145 6.436623,-7.44629 8.834583,-7.32008 2.39796,0.12621 9.21321,1.13587 5.9318,15.90225 -3.28142,14.76638 1.13587,10.09667 4.41729,8.70838 3.28142,-1.38829 7.44629,-5.30075 2.14554,-16.28088 -5.30075,-10.98013 -12.74704,-8.20354 -12.74704,-8.20354"
         id="path1833" />
      <path
         style="fill:none;stroke:#000000;stroke-width:0.8;stroke-linecap:butt;stroke-linejoin:miter;stroke-opacity:1;stroke-miterlimit:4;stroke-dasharray:none"
         d="m 95.579024,147.69681 c 0,0 0.936596,1.36011 3.190203,0.45695 2.253613,-0.90316 20.141933,-8.02423 20.141933,-8.02423 0,0 0.86083,-0.20973 0.92368,-1.36344"
         id="path28564" />
    </g>
  </g>
</svg>
