<?xml version="1.0" encoding="UTF-8" standalone="no"?>
<!-- Created with Inkscape (http://www.inkscape.org/) -->

<svg
   width="87mm"
   height="159mm"
   version="1.1"
   viewBox="25 40 92.799855 143.1"
   id="svg138"
   sodipodi:docname="pigibank_all.svg"
   inkscape:version="1.1.1 (3bf5ae0d25, 2021-09-20)"
   xmlns:inkscape="http://www.inkscape.org/namespaces/inkscape"
   xmlns:sodipodi="http://sodipodi.sourceforge.net/DTD/sodipodi-0.dtd"
   xmlns="http://www.w3.org/2000/svg"
   xmlns:svg="http://www.w3.org/2000/svg">
  <defs
     id="defs142" />
  <sodipodi:namedview
     id="namedview140"
     pagecolor="#ffffff"
     bordercolor="#666666"
     borderopacity="1.0"
     inkscape:pageshadow="2"
     inkscape:pageopacity="0.0"
     inkscape:pagecheckerboard="0"
     inkscape:document-units="px"
     showgrid="false"
     inkscape:zoom="0.95710145"
     inkscape:cx="-16.19473"
     inkscape:cy="351.58237"
     inkscape:window-width="1920"
     inkscape:window-height="1017"
     inkscape:window-x="1912"
     inkscape:window-y="-8"
     inkscape:window-maximized="1"
     inkscape:current-layer="svg138" />
  <path
     d="m 113.53087,114.86947 c -3.2728,1.1021 -5.1523,2.8581 -6.1016,4.6973 -2.9151,1.5714 -4.7734,3.9219 -4.7734,3.9219 a 1.4825,1.4825 0 0 0 0.26562,2.0781 1.4825,1.4825 0 0 0 2.0801,-0.26563 c 0,0 0.86052,-0.87622 1.8066,-1.6973 0.41167,1.884 1.7503,3.3615 3.6152,3.5996 2.8907,0.36902 5.1315,-1.651 5.8301,-3.8555 0.34931,-1.1022 0.35562,-2.3824 -0.34375,-3.4648 -0.58934,-0.91213 -1.6934,-1.3997 -2.9355,-1.5606 0.47646,-0.21658 0.89131,-0.43891 1.502,-0.64453 a 1.4825,1.4825 0 0 0 0.93164,-1.877 1.4825,1.4825 0 0 0 -1.877,-0.93164 z m -1.2227,6.2774 c 0.86618,0 1.0214,0.2066 1.1113,0.3457 0.0899,0.1391 0.1605,0.47717 0.008,0.95899 -0.30537,0.96362 -1.3232,1.977 -2.627,1.8105 -0.0726,-0.009 -1.235,-1.079 -1.2012,-2.4785 0.85045,-0.37623 1.7664,-0.63672 2.709,-0.63672 z"
     color="#000000"
     fill="#ffffff"
     stroke="#000000"
     stroke-linecap="round"
     stroke-width="0.92604"
     id="path2" />
  <g
     fill="none"
     stroke="#000000"
     id="g10"
     transform="translate(-37.179125,-19.460676)">
    <path
       d="m 115.57,198.92 -1.8741,13.297 c 0,0 -0.98167,1.9633 -5.9793,2.0526 -4.9976,0.0892 -5.533,-2.4988 -5.533,-2.4988 l -1.5171,-11.959 z"
       stroke-width="0.92604"
       id="path4" />
    <path
       d="m 129.54,187.75 0.35697,9.4597 c 0,0 1.5171,2.1418 5.7115,2.1418 4.1944,0 5.6223,-2.6773 5.6223,-2.6773 l 2.4988,-15.617 -13.922,0.35697 z"
       stroke-width="0.92604"
       id="path6" />
    <path
       d="m 77.73,192.32 1.4279,9.8167 c 0,0 0.98167,1.9634 5.89,2.1418 4.9084,0.17849 5.6223,-3.2127 5.6223,-3.2127 l 1.3386,-10.263 z"
       stroke-width="0.92604"
       id="path8" />
  </g>
  <path
     d="m 50.099875,122.78947 19.812,-7.8534 c 0,0 19.665,-9.07 35.339995,11.245 18.6,24.104 -0.0892,40.962 -0.0892,40.962 l -24.719995,13.654 c 0,0 -33.377,12.137 -46.585,-14.279 -15.416,-30.831 16.242,-43.729 16.242,-43.729 z"
     fill="#ffffff"
     stroke="#000000"
     stroke-width="0.92604"
     id="path12" />
  <path
     d="m 33.875875,136.27947 c 0,0 -4.6248,-11.173 -3.7871,-15.137 0.49931,-2.3625 2.3174,-2.7118 6.8984,-2.5371 4.581,0.17463 9.5694,1.8736 12.532,3.7716 4.0387,2.5873 5.6439,7.4013 3.9756,7.5725 -1.8505,0.18993 -8.1856,-0.97376 -12.684,0.69415 -5.6163,2.0824 -6.9351,5.6356 -6.9351,5.6356 z"
     fill="#ffffff"
     id="path14" />
  <path
     d="m 51.797875,129.96947 c 0,0 -6.5628,-1.3883 -12.116,1.2621 -5.5532,2.6504 -5.8056,5.0483 -5.8056,5.0483 0,0 -3.66,-10.349 -3.66,-14.009 0,-3.66 5.427,-1.3883 7.8249,-0.25242 2.398,1.1359 11.864,8.5822 15.019,7.9511 3.1552,-0.63104 -0.88346,-6.9415 -5.8056,-8.9608 -4.9221,-2.0193 -16.407,-4.0387 -17.164,0.12621"
     fill="none"
     stroke="#000000"
     stroke-width="0.92604"
     id="path16" />
  <path
     d="m 81.730875,120.66947 c 0,0 1.6082,-0.7542 0.59561,-1.7347 -0.77105,-0.74663 -1.837,-0.77105 -2.8132,-0.50089 -4.1057,1.5142 -17.189,6.6008 -20.049,7.8499 0,0 -1.8484,0.73731 -0.67599,2.2021 0.72711,0.90843 2.8006,0.20786 2.8006,0.20786 2.9737,-1.3301 17.485,-6.9434 20.142,-8.0242 z"
     fill="none"
     stroke="#000000"
     stroke-width="0.92604"
     id="path18" />
  <g
     transform="rotate(2.7101,431.52623,-587.14892)"
     id="g40">
    <path
       d="m 64.104,176.72 5.963,-2.535 c 3.3229,-1.4126 8.005,0.93411 11.414,4.2771 4.9195,4.8239 4.6843,11.251 2.2109,12.494 l -6.6422,3.3373 c 0,0 -8.3929,-2.5242 -10.475,-6.3104 -2.0824,-3.7863 -2.4706,-11.263 -2.4706,-11.263 z"
       fill="#ffffff"
       stroke="#000000"
       stroke-width="0.92604"
       id="path20" />
    <ellipse
       cx="68.047997"
       cy="185.71001"
       rx="1.9187"
       ry="2.3203001"
       fill="none"
       id="ellipse22" />
    <g
       stroke="#000000"
       stroke-width="0.92604"
       id="g38">
      <path
         d="m 71.813,178.58 c 11.99,7.6987 8.7201,20.877 -1.5145,14.135 -12.483,-8.2224 -10.097,-21.455 1.5145,-14.135 z"
         fill="#ffffff"
         id="path24" />
      <g
         transform="translate(5.7034,4.9507)"
         fill="none"
         id="g30">
        <path
           d="m 67.144,184.55 c 1.3801,1.5171 2.465,0.54087 2.465,0.54087 0,0 1.1662,-1.3898 -0.93705,-3.302 -1.8556,-1.687 -2.588,-0.17849 -2.588,-0.17849 0,0 -0.70087,0.92306 1.0601,2.9396 z"
           id="path26" />
        <path
           d="m 69.42,185.12 c 0,0 -1.1347,-0.51047 -1.8148,-1.4379 -1.521,-2.0741 -0.44825,-2.4843 -0.44825,-2.4843"
           id="path28" />
      </g>
      <g
         fill="none"
         id="g36">
        <path
           d="m 67.144,184.55 c 1.3801,1.5171 2.465,0.54087 2.465,0.54087 0,0 1.1662,-1.3898 -0.93705,-3.302 -1.8556,-1.687 -2.588,-0.17849 -2.588,-0.17849 0,0 -0.70087,0.92306 1.0601,2.9396 z"
           id="path32" />
        <path
           d="m 69.42,185.12 c 0,0 -1.1347,-0.51047 -1.8148,-1.4379 -1.521,-2.0741 -0.44825,-2.4843 -0.44825,-2.4843"
           id="path34" />
      </g>
    </g>
  </g>
  <ellipse
     transform="matrix(0.99976979,0.021456,0,1,0,0)"
     cx="51.031334"
     cy="156.27744"
     rx="2.8088005"
     ry="3.5969"
     fill-rule="evenodd"
     stroke="#000000"
     stroke-width="0.92615"
     id="ellipse42" />
  <ellipse
     cx="52.45488"
     cy="155.52954"
     rx="0.60238999"
     ry="0.79076999"
     fill="#ffffff"
     id="ellipse44" />
  <g
     transform="translate(-51.206125,-26.836671)"
     id="g50">
    <ellipse
       transform="matrix(0.99977,0.021456,0,1,0,0)"
       cx="88.219002"
       cy="174.94"
       rx="2.8088"
       ry="3.5969"
       fill-rule="evenodd"
       stroke="#000000"
       stroke-width="0.92615"
       id="ellipse46" />
    <ellipse
       cx="89.634003"
       cy="174.99001"
       rx="0.60238999"
       ry="0.79076999"
       fill="#ffffff"
       id="ellipse48" />
  </g>
  <g
     transform="rotate(30,78.912579,83.652542)"
     id="g58">
    <path
       d="m 63.925,109.04 c -2.1956,0 -3.9756,-3.1643 -3.9756,-7.0677 m 0,0 c -10e-7,-3.9034 1.7799,-7.0677 3.9756,-7.0677 l 3.4538,-0.0436 v 14.279 l -3.4538,-0.0999"
       fill="#ffbd00"
       stroke="#000000"
       stroke-linecap="round"
       stroke-linejoin="round"
       stroke-width="0.92604"
       id="path52" />
    <ellipse
       cx="67.244003"
       cy="102"
       rx="4.0165"
       ry="7.1086001"
       fill="#ffbd00"
       stroke="#000000"
       stroke-linecap="round"
       stroke-width="0.93348"
       id="ellipse54" />
    <path
       d="m 60.801,99.515 c 0.66259,-0.66259 1.199,-0.94656 1.3252,-0.41018 0.12621,0.53638 0,1.6407 0.44173,0.7257 0.44173,-0.91501 0.7888,-1.546 0.69414,-2.114 -0.09465,-0.56794 0,-0.28397 -0.44173,-0.12621 -0.44173,0.15776 -0.22086,-1.199 -0.7257,-0.66259 -0.50483,0.53638 -0.44173,0.12621 -1.2936,2.5873 z"
       fill="#ffffff"
       id="path56" />
  </g>
  <g
     transform="rotate(-45,23.372306,62.45184)"
     id="g66">
    <path
       d="m 63.925,109.04 c -2.1956,0 -3.9756,-3.1643 -3.9756,-7.0677 m 0,0 c -10e-7,-3.9034 1.7799,-7.0677 3.9756,-7.0677 l 3.4538,-0.0436 v 14.279 l -3.4538,-0.0999"
       fill="#ffbd00"
       stroke="#000000"
       stroke-linecap="round"
       stroke-linejoin="round"
       stroke-width="0.92604"
       id="path60" />
    <ellipse
       cx="67.244003"
       cy="102"
       rx="4.0165"
       ry="7.1086001"
       fill="#ffbd00"
       stroke="#000000"
       stroke-linecap="round"
       stroke-width="0.93348"
       id="ellipse62" />
    <path
       d="m 60.801,99.515 c 0.66259,-0.66259 1.199,-0.94656 1.3252,-0.41018 0.12621,0.53638 0,1.6407 0.44173,0.7257 0.44173,-0.91501 0.7888,-1.546 0.69414,-2.114 -0.09465,-0.56794 0,-0.28397 -0.44173,-0.12621 -0.44173,0.15776 -0.22086,-1.199 -0.7257,-0.66259 -0.50483,0.53638 -0.44173,0.12621 -1.2936,2.5873 z"
       fill="#ffffff"
       id="path64" />
  </g>
  <g
     transform="translate(-0.91012448,14.869331)"
     id="g90">
    <g
       transform="rotate(15.982,237.8,88.199)"
       stroke="#000000"
       stroke-linecap="round"
       stroke-linejoin="round"
       id="g88">
      <g
         fill="#6795dc"
         stroke-width="1.0627"
         id="g84">
        <path
           d="m 70.503,70.296 c -0.37015,1.0341 -1.4537,1.5918 -2.4203,1.2459 -0.96653,-0.34598 -1.45,-1.4647 -1.0798,-2.4988 0.37015,-1.0341 2.1878,-3.6425 3.1543,-3.2965 0.96653,0.34598 0.71594,3.5153 0.3458,4.5494 z"
           id="path68" />
        <path
           d="m 75.703,64.916 c 1.0683,0.3824 1.6628,1.4508 1.3279,2.3864 -0.3349,0.93557 -1.4724,1.384 -2.5407,1.0016 -1.0683,-0.3824 -3.7813,-2.2092 -3.4464,-3.1447 0.3349,-0.93557 3.5909,-0.62568 4.6591,-0.24328 z"
           id="path70" />
        <path
           d="m 65.125,65.002 c -1.0683,-0.3824 -1.6628,-1.4508 -1.3279,-2.3864 0.3349,-0.93557 1.4724,-1.384 2.5407,-1.0016 1.0683,0.3824 3.7813,2.2092 3.4464,3.1447 -0.3349,0.93557 -3.5909,0.62568 -4.6591,0.24328 z"
           id="path72" />
        <path
           d="m 70.448,59.565 c 0.37015,-1.0341 1.4537,-1.5918 2.4203,-1.2459 0.9666,0.3459 1.45,1.4647 1.0798,2.4988 -0.3702,1.0341 -2.1878,3.6425 -3.1543,3.2965 -0.96653,-0.34598 -0.71594,-3.5153 -0.3458,-4.5494 z"
           id="path74" />
        <path
           d="m 66.683,68.788 c -0.99292,0.46945 -2.1536,0.09766 -2.5924,-0.83043 -0.4388,-0.92808 0.01041,-2.061 1.0033,-2.5305 0.99292,-0.46945 4.1226,-1.0286 4.5614,-0.10054 0.4388,0.92808 -1.9795,2.992 -2.9724,3.4614 z"
           id="path76" />
        <path
           d="m 74.164,68.66 c 0.48498,1.0258 0.14988,2.2017 -0.74848,2.6264 -0.89836,0.4247 -2.0198,-0.06249 -2.5048,-1.0883 -0.48498,-1.0258 -1.1117,-4.2359 -0.2133,-4.6606 0.8984,-0.4247 2.9816,2.0967 3.4665,3.1225 z"
           id="path78" />
        <path
           d="m 66.624,61.241 c -0.48498,-1.0258 -0.14988,-2.2017 0.74848,-2.6264 0.89836,-0.42474 2.0198,0.06249 2.5048,1.0883 0.48498,1.0258 1.1117,4.2359 0.2133,4.6606 -0.89836,0.42474 -2.9816,-2.0967 -3.4665,-3.1225 z"
           id="path80" />
        <path
           d="m 74.232,61.161 c 0.99292,-0.46945 2.1536,-0.09766 2.5924,0.83043 0.4388,0.92808 -0.01041,2.061 -1.0033,2.5305 -0.99292,0.46945 -4.1226,1.0286 -4.5614,0.10054 -0.4388,-0.92806 1.9795,-2.992 2.9724,-3.4614 z"
           id="path82" />
      </g>
      <circle
         cx="70.524002"
         cy="65.169998"
         r="2.8334999"
         fill="#ffe3e0"
         stroke-width="0.836"
         id="circle86" />
    </g>
  </g>
  <g
     transform="matrix(1.3082,0,0,1.3082,-19.873125,35.285331)"
     stroke="#000000"
     stroke-linecap="round"
     stroke-linejoin="round"
     id="g114">
    <g
       transform="matrix(0.51605,0.18473,-0.17881,0.49952,40.622,24.597)"
       fill="#ff2908"
       stroke-width="1.2757"
       id="g100">
      <path
         d="m 79.426,62.113 c 0,2.0701 -1.5183,3.7482 -3.3912,3.7482 -1.8729,0 -3.3912,-1.6781 -3.3912,-3.7482 0,-2.0701 1.5183,-7.8534 3.3912,-7.8534 1.8729,0 3.3912,5.7833 3.3912,7.8534 z"
         id="path92" />
      <path
         d="m 85.048,49.262 c 2.0701,0 3.7482,1.5183 3.7482,3.3912 0,1.8729 -1.6781,3.3912 -3.7482,3.3912 -2.0701,0 -7.8534,-1.5183 -7.8534,-3.3912 0,-1.8729 5.7833,-3.3912 7.8534,-3.3912 z"
         id="path94" />
      <path
         d="m 66.932,56.134 c -2.0701,0 -3.7482,-1.5183 -3.7482,-3.3912 0,-1.8729 1.6781,-3.3912 3.7482,-3.3912 2.0701,0 7.8534,1.5183 7.8534,3.3912 0,1.8729 -5.7833,3.3912 -7.8534,3.3912 z"
         id="path96" />
      <path
         d="m 72.733,43.104 c 0,-2.0701 1.5183,-3.7482 3.3912,-3.7482 1.8729,0 3.3912,1.6781 3.3912,3.7482 0,2.0701 -1.5183,7.8534 -3.3912,7.8534 -1.8729,0 -3.3912,-5.7833 -3.3912,-7.8534 z"
         id="path98" />
    </g>
    <g
       transform="matrix(0.23428,0.49553,-0.47966,0.22678,77.867,15.344)"
       fill="#ff2908"
       stroke-width="1.2757"
       id="g110">
      <path
         d="m 79.426,62.113 c 0,2.0701 -1.5183,3.7482 -3.3912,3.7482 -1.8729,0 -3.3912,-1.6781 -3.3912,-3.7482 0,-2.0701 1.5183,-7.8534 3.3912,-7.8534 1.8729,0 3.3912,5.7833 3.3912,7.8534 z"
         id="path102" />
      <path
         d="m 85.048,49.262 c 2.0701,0 3.7482,1.5183 3.7482,3.3912 0,1.8729 -1.6781,3.3912 -3.7482,3.3912 -2.0701,0 -7.8534,-1.5183 -7.8534,-3.3912 0,-1.8729 5.7833,-3.3912 7.8534,-3.3912 z"
         id="path104" />
      <path
         d="m 66.932,56.134 c -2.0701,0 -3.7482,-1.5183 -3.7482,-3.3912 0,-1.8729 1.6781,-3.3912 3.7482,-3.3912 2.0701,0 7.8534,1.5183 7.8534,3.3912 0,1.8729 -5.7833,3.3912 -7.8534,3.3912 z"
         id="path106" />
      <path
         d="m 72.733,43.104 c 0,-2.0701 1.5183,-3.7482 3.3912,-3.7482 1.8729,0 3.3912,1.6781 3.3912,3.7482 0,2.0701 -1.5183,7.8534 -3.3912,7.8534 -1.8729,0 -3.3912,-5.7833 -3.3912,-7.8534 z"
         id="path108" />
    </g>
    <circle
       cx="70.524002"
       cy="65.169998"
       r="2.8334999"
       fill="#ff7608"
       stroke-width="0.68797"
       id="circle112" />
  </g>
  <g
     transform="rotate(-47.646,38.839777,132.18106)"
     id="g122">
    <path
       transform="matrix(0.055444,0.039033,-0.036934,0.056057,98.874,58.663)"
       d="m 458.05,409.81 c -4.6948,4.6768 -71.848,-27.776 -78.395,-26.752 -6.5471,1.0241 -60.582,52.434 -66.481,49.414 -5.8987,-3.0198 4.2142,-76.915 1.217,-82.825 -2.9972,-5.9102 -68.589,-41.414 -67.539,-47.957 1.05,-6.543 74.453,-19.76 79.147,-24.437 4.6948,-4.6768 18.192,-78.029 24.739,-79.053 6.547,-1.024 41.8,64.703 47.699,67.722 5.8987,3.0198 79.832,-6.8105 82.829,-0.90031 2.9972,5.9102 -48.619,59.748 -49.668,66.292 -1.049,6.544 31.147,73.82 26.452,78.497 z"
       fill="#49bf5e"
       stroke="#000000"
       stroke-linecap="round"
       stroke-linejoin="round"
       stroke-width="12.394"
       id="path116" />
    <path
       d="m 109.93,85.033 c 0,0 -0.56121,3.9125 -0.29537,4.5751 0.26583,0.66259 2.8652,2.5242 3.6922,2.6188 0.82705,0.09466 1.152,-0.25242 0.56121,-0.47328 -0.59075,-0.22086 -3.3968,-1.3883 -3.515,-2.3664 -0.11814,-0.97811 0.29539,-3.9756 0.11816,-4.228 -0.17723,-0.25242 -0.35445,-0.34708 -0.56122,-0.12621 z"
       fill="#ffffff"
       id="path118" />
    <path
       d="m 103.02,86.453 c 1.4198,0.53638 3.313,0.85191 3.2499,1.199 -0.0631,0.34708 -0.56794,0.37863 -1.1674,0.12621 -0.59949,-0.25242 -2.2086,-0.8519 -2.2402,-1.0728 -0.0315,-0.22086 0.15777,-0.25242 0.15777,-0.25242 z"
       fill="#ffffff"
       id="path120" />
  </g>
  <g
     transform="translate(-27.566425,7.3913296)"
     id="g130">
    <path
       transform="matrix(0.055444,0.039033,-0.036934,0.056057,98.874,58.663)"
       d="m 458.05,409.81 c -4.6948,4.6768 -71.848,-27.776 -78.395,-26.752 -6.5471,1.0241 -60.582,52.434 -66.481,49.414 -5.8987,-3.0198 4.2142,-76.915 1.217,-82.825 -2.9972,-5.9102 -68.589,-41.414 -67.539,-47.957 1.05,-6.543 74.453,-19.76 79.147,-24.437 4.6948,-4.6768 18.192,-78.029 24.739,-79.053 6.547,-1.024 41.8,64.703 47.699,67.722 5.8987,3.0198 79.832,-6.8105 82.829,-0.90031 2.9972,5.9102 -48.619,59.748 -49.668,66.292 -1.049,6.544 31.147,73.82 26.452,78.497 z"
       fill="#bf62ff"
       stroke="#000000"
       stroke-linecap="round"
       stroke-linejoin="round"
       stroke-width="12.394"
       id="path124" />
    <path
       d="m 109.93,85.033 c 0,0 -0.56121,3.9125 -0.29537,4.5751 0.26583,0.66259 2.8652,2.5242 3.6922,2.6188 0.82705,0.09466 1.152,-0.25242 0.56121,-0.47328 -0.59075,-0.22086 -3.3968,-1.3883 -3.515,-2.3664 -0.11814,-0.97811 0.29539,-3.9756 0.11816,-4.228 -0.17723,-0.25242 -0.35445,-0.34708 -0.56122,-0.12621 z"
       fill="#ffffff"
       id="path126" />
    <path
       d="m 103.02,86.453 c 1.4198,0.53638 3.313,0.85191 3.2499,1.199 -0.0631,0.34708 -0.56794,0.37863 -1.1674,0.12621 -0.59949,-0.25242 -2.2086,-0.8519 -2.2402,-1.0728 -0.0315,-0.22086 0.15777,-0.25242 0.15777,-0.25242 z"
       fill="#ffffff"
       id="path128" />
  </g>
  <path
     d="m 82.650875,119.30947 h 5.1051 c 0,0 10.084,2.773 10.084,10.983 v 27.844 c 0,0 1.0709,7.8534 -2.588,10.263 -3.659,2.4096 -17.402,11.245 -25.523,10.441 -8.1211,-0.80318 -10.263,-0.6247 -10.531,-7.8534 -0.26773,-7.2287 -0.80319,-42.747 -0.80319,-42.747 0,0 0.29027,0.97094 1.7402,0.71395 1.45,-0.257 21.592,-8.2812 21.592,-8.2812 0,0 0.95007,-0.34359 0.92368,-1.3634 z"
     fill="#ffffff"
     id="path132" />
  <path
     d="m 74.770875,152.17947 c -3.66,-13.757 -12.999,-15.65 -13.252,-17.164 -0.25242,-1.5145 6.4366,-7.4463 8.8346,-7.3201 2.398,0.1262 9.2132,1.1359 5.9318,15.902 -3.2814,14.766 1.1359,10.097 4.4173,8.7084 3.2814,-1.3886 7.4463,-5.3008 2.1455,-16.281 -5.3008,-10.9802 -12.747,-8.2035 -12.747,-8.2035"
     fill="#ffffff"
     stroke="#000000"
     stroke-width="0.92604"
     id="path134" />
  <path
     d="m 58.399875,128.23947 c 0,0 0.9366,1.3601 3.1902,0.45695 2.2536,-0.90316 20.142,-8.0242 20.142,-8.0242 0,0 0.86083,-0.20973 0.92368,-1.3634"
     fill="none"
     stroke="#000000"
     stroke-width="0.8"
     id="path136" />
</svg>
