<?xml version="1.0" encoding="UTF-8" standalone="no"?>
<!-- Created with Inkscape (http://www.inkscape.org/) -->

<svg
   width="87mm"
   height="79mm"
   version="1.1"
   viewBox="25 40 92.799855 71.1"
   id="svg138"
   sodipodi:docname="pigibank_JustPigl.svg"
   inkscape:version="1.1.1 (3bf5ae0d25, 2021-09-20)"
   xmlns:inkscape="http://www.inkscape.org/namespaces/inkscape"
   xmlns:sodipodi="http://sodipodi.sourceforge.net/DTD/sodipodi-0.dtd"
   xmlns="http://www.w3.org/2000/svg"
   xmlns:svg="http://www.w3.org/2000/svg">
  <defs
     id="defs142" />
  <sodipodi:namedview
     id="namedview140"
     pagecolor="#ffffff"
     bordercolor="#666666"
     borderopacity="1.0"
     inkscape:pageshadow="2"
     inkscape:pageopacity="0.0"
     inkscape:pagecheckerboard="0"
     inkscape:document-units="px"
     showgrid="false"
     inkscape:zoom="0.95710145"
     inkscape:cx="-16.19473"
     inkscape:cy="351.58237"
     inkscape:window-width="1920"
     inkscape:window-height="1017"
     inkscape:window-x="1912"
     inkscape:window-y="-8"
     inkscape:window-maximized="1"
     inkscape:current-layer="svg138" />
  <path
     d="m 113.53087,36.728569 c -3.2728,1.1021 -5.1523,2.8581 -6.1016,4.6973 -2.9151,1.5714 -4.7734,3.9219 -4.7734,3.9219 a 1.4825,1.4825 0 0 0 0.26562,2.0781 1.4825,1.4825 0 0 0 2.0801,-0.26563 c 0,0 0.86052,-0.87622 1.8066,-1.6973 0.41167,1.884 1.7503,3.3615 3.6152,3.5996 2.8907,0.36902 5.1315,-1.651 5.8301,-3.8555 0.34931,-1.1022 0.35562,-2.3824 -0.34375,-3.4648 -0.58934,-0.91213 -1.6934,-1.3997 -2.9355,-1.5606 0.47646,-0.21658 0.89131,-0.43891 1.502,-0.64453 a 1.4825,1.4825 0 0 0 0.93164,-1.877 1.4825,1.4825 0 0 0 -1.877,-0.93164 z m -1.2227,6.2774 c 0.86618,0 1.0214,0.2066 1.1113,0.3457 0.0899,0.1391 0.1605,0.47717 0.008,0.95899 -0.30537,0.96362 -1.3232,1.977 -2.627,1.8105 -0.0726,-0.009 -1.235,-1.079 -1.2012,-2.4785 0.85045,-0.37623 1.7664,-0.63672 2.709,-0.63672 z"
     color="#000000"
     fill="#ffffff"
     stroke="#000000"
     stroke-linecap="round"
     stroke-width="0.92604"
     id="path2" />
  <g
     fill="none"
     stroke="#000000"
     id="g10"
     transform="translate(-37.179124,-97.60158)">
    <path
       d="m 115.57,198.92 -1.8741,13.297 c 0,0 -0.98167,1.9633 -5.9793,2.0526 -4.9976,0.0892 -5.533,-2.4988 -5.533,-2.4988 l -1.5171,-11.959 z"
       stroke-width="0.92604"
       id="path4" />
    <path
       d="m 129.54,187.75 0.35697,9.4597 c 0,0 1.5171,2.1418 5.7115,2.1418 4.1944,0 5.6223,-2.6773 5.6223,-2.6773 l 2.4988,-15.617 -13.922,0.35697 z"
       stroke-width="0.92604"
       id="path6" />
    <path
       d="m 77.73,192.32 1.4279,9.8167 c 0,0 0.98167,1.9634 5.89,2.1418 4.9084,0.17849 5.6223,-3.2127 5.6223,-3.2127 l 1.3386,-10.263 z"
       stroke-width="0.92604"
       id="path8" />
  </g>
  <path
     d="m 50.099876,44.648569 19.812,-7.8534 c 0,0 19.665,-9.07 35.339994,11.245 18.6,24.104 -0.0892,40.962 -0.0892,40.962 L 80.442676,102.65617 c 0,0 -33.377,12.137 -46.585,-14.279001 -15.416,-30.831 16.242,-43.729 16.242,-43.729 z"
     fill="#ffffff"
     stroke="#000000"
     stroke-width="0.92604"
     id="path12" />
  <path
     d="m 33.875876,58.138569 c 0,0 -4.6248,-11.173 -3.7871,-15.137 0.49931,-2.3625 2.3174,-2.7118 6.8984,-2.5371 4.581,0.17463 9.5694,1.8736 12.532,3.7716 4.0387,2.5873 5.6439,7.4013 3.9756,7.5725 -1.8505,0.18993 -8.1856,-0.97376 -12.684,0.69415 -5.6163,2.0824 -6.9351,5.6356 -6.9351,5.6356 z"
     fill="#ffffff"
     id="path14" />
  <path
     d="m 51.797876,51.828569 c 0,0 -6.5628,-1.3883 -12.116,1.2621 -5.5532,2.6504 -5.8056,5.0483 -5.8056,5.0483 0,0 -3.66,-10.349 -3.66,-14.009 0,-3.66 5.427,-1.3883 7.8249,-0.25242 2.398,1.1359 11.864,8.5822 15.019,7.9511 3.1552,-0.63104 -0.88346,-6.9415 -5.8056,-8.9608 -4.9221,-2.0193 -16.407,-4.0387 -17.164,0.12621"
     fill="none"
     stroke="#000000"
     stroke-width="0.92604"
     id="path16" />
  <path
     d="m 81.730876,42.528569 c 0,0 1.6082,-0.7542 0.59561,-1.7347 -0.77105,-0.74663 -1.837,-0.77105 -2.8132,-0.50089 -4.1057,1.5142 -17.189,6.6008 -20.049,7.8499 0,0 -1.8484,0.73731 -0.67599,2.2021 0.72711,0.90843 2.8006,0.20786 2.8006,0.20786 2.9737,-1.3301 17.485,-6.9434 20.142,-8.0242 z"
     fill="none"
     stroke="#000000"
     stroke-width="0.92604"
     id="path18" />
  <g
     transform="rotate(2.7101,2083.2399,-626.21937)"
     id="g40">
    <path
       d="m 64.104,176.72 5.963,-2.535 c 3.3229,-1.4126 8.005,0.93411 11.414,4.2771 4.9195,4.8239 4.6843,11.251 2.2109,12.494 l -6.6422,3.3373 c 0,0 -8.3929,-2.5242 -10.475,-6.3104 -2.0824,-3.7863 -2.4706,-11.263 -2.4706,-11.263 z"
       fill="#ffffff"
       stroke="#000000"
       stroke-width="0.92604"
       id="path20" />
    <ellipse
       cx="68.047997"
       cy="185.71001"
       rx="1.9187"
       ry="2.3203001"
       fill="none"
       id="ellipse22" />
    <g
       stroke="#000000"
       stroke-width="0.92604"
       id="g38">
      <path
         d="m 71.813,178.58 c 11.99,7.6987 8.7201,20.877 -1.5145,14.135 -12.483,-8.2224 -10.097,-21.455 1.5145,-14.135 z"
         fill="#ffffff"
         id="path24" />
      <g
         transform="translate(5.7034,4.9507)"
         fill="none"
         id="g30">
        <path
           d="m 67.144,184.55 c 1.3801,1.5171 2.465,0.54087 2.465,0.54087 0,0 1.1662,-1.3898 -0.93705,-3.302 -1.8556,-1.687 -2.588,-0.17849 -2.588,-0.17849 0,0 -0.70087,0.92306 1.0601,2.9396 z"
           id="path26" />
        <path
           d="m 69.42,185.12 c 0,0 -1.1347,-0.51047 -1.8148,-1.4379 -1.521,-2.0741 -0.44825,-2.4843 -0.44825,-2.4843"
           id="path28" />
      </g>
      <g
         fill="none"
         id="g36">
        <path
           d="m 67.144,184.55 c 1.3801,1.5171 2.465,0.54087 2.465,0.54087 0,0 1.1662,-1.3898 -0.93705,-3.302 -1.8556,-1.687 -2.588,-0.17849 -2.588,-0.17849 0,0 -0.70087,0.92306 1.0601,2.9396 z"
           id="path32" />
        <path
           d="m 69.42,185.12 c 0,0 -1.1347,-0.51047 -1.8148,-1.4379 -1.521,-2.0741 -0.44825,-2.4843 -0.44825,-2.4843"
           id="path34" />
      </g>
    </g>
  </g>
  <ellipse
     transform="matrix(0.99976979,0.021456,0,1,0,0)"
     cx="51.031334"
     cy="78.136536"
     rx="2.8088005"
     ry="3.5969"
     fill-rule="evenodd"
     stroke="#000000"
     stroke-width="0.92615"
     id="ellipse42" />
  <ellipse
     cx="52.45488"
     cy="77.388641"
     rx="0.60238999"
     ry="0.79076999"
     fill="#ffffff"
     id="ellipse44" />
  <g
     transform="translate(-51.206124,-104.97757)"
     id="g50">
    <ellipse
       transform="matrix(0.99977,0.021456,0,1,0,0)"
       cx="88.219002"
       cy="174.94"
       rx="2.8088"
       ry="3.5969"
       fill-rule="evenodd"
       stroke="#000000"
       stroke-width="0.92615"
       id="ellipse46" />
    <ellipse
       cx="89.634003"
       cy="174.99001"
       rx="0.60238999"
       ry="0.79076999"
       fill="#ffffff"
       id="ellipse48" />
  </g>
  <path
     d="m 82.650876,41.168569 h 5.1051 c 0,0 10.084,2.773 10.084,10.983 v 27.844 c 0,0 1.0709,7.8534 -2.588,10.263 -3.659,2.4096 -17.402,11.245001 -25.523,10.441001 -8.1211,-0.803181 -10.263,-0.6247 -10.531,-7.853401 -0.26773,-7.2287 -0.80319,-42.747 -0.80319,-42.747 0,0 0.29027,0.97094 1.7402,0.71395 1.45,-0.257 21.592,-8.2812 21.592,-8.2812 0,0 0.95007,-0.34359 0.92368,-1.3634 z"
     fill="#ffffff"
     id="path132" />
  <path
     d="m 74.770876,74.038569 c -3.66,-13.757 -12.999,-15.65 -13.252,-17.164 -0.25242,-1.5145 6.4366,-7.4463 8.8346,-7.3201 2.398,0.1262 9.2132,1.1359 5.9318,15.902 -3.2814,14.766 1.1359,10.097 4.4173,8.7084 3.2814,-1.3886 7.4463,-5.3008 2.1455,-16.281 -5.3008,-10.9802 -12.747,-8.2035 -12.747,-8.2035"
     fill="#ffffff"
     stroke="#000000"
     stroke-width="0.92604"
     id="path134" />
  <path
     d="m 58.399876,50.098569 c 0,0 0.9366,1.3601 3.1902,0.45695 2.2536,-0.90316 20.142,-8.0242 20.142,-8.0242 0,0 0.86083,-0.20973 0.92368,-1.3634"
     fill="none"
     stroke="#000000"
     stroke-width="0.8"
     id="path136" />
</svg>
