<?xml version="1.0" encoding="UTF-8"?>
<!-- Created with Inkscape (http://www.inkscape.org/) -->
<svg width="210mm" height="297mm" version="1.1" viewBox="0 0 210 297" xmlns="http://www.w3.org/2000/svg">
 <path d="m150.71 134.33c-3.2728 1.1021-5.1523 2.8581-6.1016 4.6973-2.9151 1.5714-4.7734 3.9219-4.7734 3.9219a1.4825 1.4825 0 0 0 0.26562 2.0781 1.4825 1.4825 0 0 0 2.0801-0.26563s0.86052-0.87622 1.8066-1.6973c0.41167 1.884 1.7503 3.3615 3.6152 3.5996 2.8907 0.36902 5.1315-1.651 5.8301-3.8555 0.34931-1.1022 0.35562-2.3824-0.34375-3.4648-0.58934-0.91213-1.6934-1.3997-2.9355-1.5606 0.47646-0.21658 0.89131-0.43891 1.502-0.64453a1.4825 1.4825 0 0 0 0.93164-1.877 1.4825 1.4825 0 0 0-1.877-0.93164zm-1.2227 6.2774c0.86618 0 1.0214 0.2066 1.1113 0.3457 0.0899 0.1391 0.1605 0.47717 8e-3 0.95899-0.30537 0.96362-1.3232 1.977-2.627 1.8105-0.0726-9e-3 -1.235-1.079-1.2012-2.4785 0.85045-0.37623 1.7664-0.63672 2.709-0.63672z" color="#000000" fill="#fff" stroke="#000" stroke-linecap="round" stroke-width=".92604"/>
 <g fill="none" stroke="#000">
  <path d="m115.57 198.92-1.8741 13.297s-0.98167 1.9633-5.9793 2.0526c-4.9976 0.0892-5.533-2.4988-5.533-2.4988l-1.5171-11.959z" stroke-width=".92604"/>
  <path d="m129.54 187.75 0.35697 9.4597s1.5171 2.1418 5.7115 2.1418 5.6223-2.6773 5.6223-2.6773l2.4988-15.617-13.922 0.35697z" stroke-width=".92604"/>
  <path d="m77.73 192.32 1.4279 9.8167s0.98167 1.9634 5.89 2.1418c4.9084 0.17849 5.6223-3.2127 5.6223-3.2127l1.3386-10.263z" stroke-width=".92604"/>
 </g>
 <path d="m87.279 142.25 19.812-7.8534s19.665-9.07 35.34 11.245c18.6 24.104-0.0892 40.962-0.0892 40.962l-24.72 13.654s-33.377 12.137-46.585-14.279c-15.416-30.831 16.242-43.729 16.242-43.729z" fill="#fff" stroke="#000" stroke-width=".92604"/>
 <path d="m71.055 155.74s-4.6248-11.173-3.7871-15.137c0.49931-2.3625 2.3174-2.7118 6.8984-2.5371 4.581 0.17463 9.5694 1.8736 12.532 3.7716 4.0387 2.5873 5.6439 7.4013 3.9756 7.5725-1.8505 0.18993-8.1856-0.97376-12.684 0.69415-5.6163 2.0824-6.9351 5.6356-6.9351 5.6356z" fill="#fff"/>
 <path d="m88.977 149.43s-6.5628-1.3883-12.116 1.2621c-5.5532 2.6504-5.8056 5.0483-5.8056 5.0483s-3.66-10.349-3.66-14.009 5.427-1.3883 7.8249-0.25242c2.398 1.1359 11.864 8.5822 15.019 7.9511 3.1552-0.63104-0.88346-6.9415-5.8056-8.9608-4.9221-2.0193-16.407-4.0387-17.164 0.12621" fill="none" stroke="#000" stroke-width=".92604"/>
 <path d="m118.91 140.13s1.6082-0.7542 0.59561-1.7347c-0.77105-0.74663-1.837-0.77105-2.8132-0.50089-4.1057 1.5142-17.189 6.6008-20.049 7.8499 0 0-1.8484 0.73731-0.67599 2.2021 0.72711 0.90843 2.8006 0.20786 2.8006 0.20786 2.9737-1.3301 17.485-6.9434 20.142-8.0242z" fill="none" stroke="#000" stroke-width=".92604"/>
 <g transform="rotate(2.7101 38.763 208.46)">
  <path d="m64.104 176.72 5.963-2.535c3.3229-1.4126 8.005 0.93411 11.414 4.2771 4.9195 4.8239 4.6843 11.251 2.2109 12.494l-6.6422 3.3373s-8.3929-2.5242-10.475-6.3104c-2.0824-3.7863-2.4706-11.263-2.4706-11.263z" fill="#fff" stroke="#000" stroke-width=".92604"/>
  <ellipse cx="68.048" cy="185.71" rx="1.9187" ry="2.3203" fill="none"/>
  <g stroke="#000" stroke-width=".92604">
   <path d="m71.813 178.58c11.99 7.6987 8.7201 20.877-1.5145 14.135-12.483-8.2224-10.097-21.455 1.5145-14.135z" fill="#fff"/>
   <g transform="translate(5.7034 4.9507)" fill="none">
    <path d="m67.144 184.55c1.3801 1.5171 2.465 0.54087 2.465 0.54087s1.1662-1.3898-0.93705-3.302c-1.8556-1.687-2.588-0.17849-2.588-0.17849s-0.70087 0.92306 1.0601 2.9396z"/>
    <path d="m69.42 185.12s-1.1347-0.51047-1.8148-1.4379c-1.521-2.0741-0.44825-2.4843-0.44825-2.4843"/>
   </g>
   <g fill="none">
    <path d="m67.144 184.55c1.3801 1.5171 2.465 0.54087 2.465 0.54087s1.1662-1.3898-0.93705-3.302c-1.8556-1.687-2.588-0.17849-2.588-0.17849s-0.70087 0.92306 1.0601 2.9396z"/>
    <path d="m69.42 185.12s-1.1347-0.51047-1.8148-1.4379c-1.521-2.0741-0.44825-2.4843-0.44825-2.4843"/>
   </g>
  </g>
 </g>
 <ellipse transform="matrix(.99977 .021456 0 1 0 0)" cx="88.219" cy="174.94" rx="2.8088" ry="3.5969" fill-rule="evenodd" stroke="#000" stroke-width=".92615"/>
 <ellipse cx="89.634" cy="174.99" rx=".60239" ry=".79077" fill="#fff"/>
 <g transform="translate(-14.027 -7.376)">
  <ellipse transform="matrix(.99977 .021456 0 1 0 0)" cx="88.219" cy="174.94" rx="2.8088" ry="3.5969" fill-rule="evenodd" stroke="#000" stroke-width=".92615"/>
  <ellipse cx="89.634" cy="174.99" rx=".60239" ry=".79077" fill="#fff"/>
 </g>
</svg>
